<svg xmlns="http://www.w3.org/2000/svg" shape-rendering="geometricPrecision" text-rendering="geometricPrecision" image-rendering="optimizeQuality" fill-rule="evenodd" clip-rule="evenodd" viewBox="0 0 512 467.36">
    <g fill-rule="nonzero">
        <path fill="#333" d="M58.328 0h254.295c-11.983 13.787-22.843 27.299-32.641 40.444H58.328c-4.93 0-9.416 2.01-12.656 5.227a17.945 17.945 0 00-5.228 12.656v350.705c0 4.869 2.04 9.332 5.289 12.58 3.263 3.263 7.749 5.304 12.595 5.304h395.344c4.823 0 9.294-2.049 12.565-5.32 3.271-3.27 5.319-7.742 5.319-12.564V211.536A1200.061 1200.061 0 00512 194.294v214.738c0 15.988-6.596 30.593-17.165 41.163-10.57 10.569-25.174 17.165-41.163 17.165H58.328c-15.996 0-30.624-6.58-41.194-17.15C6.596 439.671 0 425.082 0 409.032V58.327c0-16.011 6.565-30.57 17.112-41.132l.084-.084C27.758 6.565 42.317 0 58.328 0z"/>
        <path fill="currentFill" d="M137.419 167.477l62.692-.826a10.04 10.04 0 015.426 1.514c12.679 7.329 24.639 15.69 35.789 25.121a243.595 243.595 0 0122.485 21.681c21.972-34.811 48.575-70.326 76.508-103.639 34.552-41.201 71.358-79.245 104.091-108.6A10.042 10.042 0 01451.127.16l48.072-.038c5.579 0 10.111 4.532 10.111 10.111 0 2.752-1.108 5.258-2.897 7.077-44.311 49.248-89.776 105.68-130.969 163.495-38.09 53.467-72.596 108.195-99.23 159.613-2.552 4.945-8.643 6.894-13.588 4.341a10.068 10.068 0 01-4.692-5.105c-14.582-31.189-32.045-59.925-52.917-85.672-20.887-25.786-45.243-48.652-73.566-68.094-4.594-3.134-5.778-9.424-2.644-14.017 2.002-2.935 5.295-4.478 8.612-4.394z"/>
    </g>
</svg>
